Coordinates
version=1
nRows=7
nColumns=42
inDegrees=yes

Units are S.I. units (second, meters, Newtons, ...)
If the header above contains a line with 'inDegrees', this indicates whether rotational values are in degrees (yes) or radians (no).

endheader
time	pelvis_tilt	pelvis_list	pelvis_rotation	pelvis_tx	pelvis_ty	pelvis_tz	hip_flexion_r	hip_adduction_r	hip_rotation_r	knee_angle_r	knee_adduction_r	knee_angle_r_beta	ankle_angle_r	subtalar_angle_r	mtp_angle_r	hip_flexion_l	hip_adduction_l	hip_rotation_l	knee_angle_l	knee_adduction_l	knee_angle_l_beta	ankle_angle_l	subtalar_angle_l	mtp_angle_l	lumbar_extension	lumbar_bending	lumbar_rotation	arm_flex_r	arm_add_r	arm_rot_r	elbow_flex_r	pro_sup_r	wrist_flex_r	wrist_dev_r	arm_flex_l	arm_add_l	arm_rot_l	elbow_flex_l	pro_sup_l	wrist_flex_l	wrist_dev_l
      0.00000000	     -1.78503719	     -1.79120229	      2.33033966	     -2.01501772	      0.90246634	     -0.18613856	     16.06858011	     -6.57956558	      2.88121876	     53.09016972	     15.98931757	      0.92659826	      0.00000000	      2.63409386	     -9.57032419	     -0.02038257	     -6.79143552	     -3.63044620	      3.50443934	     19.30286850	      0.06116400	      7.77210768	      3.47652804	     -9.57032419	    -12.91250176	      1.56771924	     -2.11197982	     -4.50902147	    -14.26238447	     -5.48966886	     18.30113926	     90.00000001	      0.00000000	      0.00000000	     -1.38804174	    -12.64466242	      0.81001331	     23.35628460	     90.00000001	      0.00000000	      0.00000000
      0.01000000	     -1.31548886	     -1.38220206	      3.34071639	     -2.00477473	      0.90237959	     -0.18909091	     16.48130061	     -7.74924306	     -5.27525838	     46.52064804	     11.60687363	      0.81193848	     11.91569243	     -8.39054914	     -9.49264029	     -1.21757783	     -5.96370806	     -3.32820881	      3.42816563	     18.75822937	      0.05983278	      8.41055032	      4.74003188	     -9.49264029	    -13.29037612	      1.42465413	     -2.98503259	     -4.60817391	    -14.20357360	     -5.75065986	     18.24865607	     90.00000001	      0.00000000	      0.00000000	     -1.04506150	    -12.93343864	      1.17355555	     24.10174478	     90.00000001	      0.00000000	      0.00000000
      0.02000000	     -1.46181380	     -1.24644174	      3.51651376	     -1.99575343	      0.90156184	     -0.19029634	     17.62819164	     -7.87288953	     -5.92494375	     44.63656763	     11.26337473	      0.77905507	     11.91853973	     -8.61706926	     -9.47096718	     -1.69960462	     -5.64411730	     -3.72150231	      3.55373741	     18.58133100	      0.06202442	      8.70699794	      4.81041751	     -9.47096718	    -13.12952088	      1.35624859	     -2.93020961	     -4.74470552	    -14.18534154	     -5.78781488	     18.28318776	     90.00000001	      0.00000000	      0.00000000	     -0.49481893	    -13.10180219	      1.24028247	     24.59112970	     90.00000001	      0.00000000	      0.00000000
      0.03000000	     -0.67432036	     -2.08654342	      4.11703186	     -1.98619988	      0.90224771	     -0.19118620	     17.02471102	     -6.67046380	     -6.16525168	     41.34391200	     11.41911214	      0.72158739	     10.94913603	    -11.37315225	     -9.35443663	     -3.28736948	     -6.75724504	     -3.45711195	      3.19342438	     18.84211066	      0.05573577	      9.46261292	      5.63343575	     -9.35443663	    -13.96500419	      2.46625608	     -3.06843768	     -4.57159025	    -14.15757345	     -6.53221553	     18.08261946	     90.00000001	      0.00000000	      0.00000000	      0.07343854	    -13.29666907	      1.88030966	     25.18602516	     90.00000001	      0.00000000	      0.00000000
      0.04000000	     -0.83635943	     -1.97280680	      4.41589654	     -1.97742075	      0.90124431	     -0.19251559	     17.99069498	     -6.81647237	     -6.83157199	     39.15362880	     11.19749986	      0.68335974	     10.80238821	    -11.19779655	     -9.32056336	     -3.65076429	     -6.40067322	     -3.34740861	      3.31401870	     18.52184341	      0.05784054	     10.04916566	      5.85174936	     -9.32056336	    -13.84844662	      2.47499384	     -3.24054096	     -4.54189457	    -14.13193463	     -6.59162414	     18.00926131	     90.00000001	      0.00000000	      0.00000000	      0.54661714	    -13.47204383	      2.04949438	     25.70993442	     90.00000001	      0.00000000	      0.00000000
      0.05000000	     -0.87306612	     -1.95710496	      4.72881252	     -1.96845682	      0.90031909	     -0.19363825	     18.67197388	     -6.82697600	     -7.55651130	     36.71550068	     11.01454308	      0.64080637	     10.35783656	    -10.91064471	     -9.28558158	     -4.16562127	     -6.24892900	     -3.16349335	      3.39154028	     18.34382090	      0.05919354	     10.67479842	      6.03448209	     -9.28558158	    -13.84988014	      2.58867486	     -3.38637411	     -4.51410911	    -14.07038242	     -6.74174419	     17.92461292	     90.00000001	      0.00000000	      0.00000000	      0.99094428	    -13.66686353	      2.30464254	     26.23301579	     90.00000001	      0.00000000	      0.00000000
      0.06000000	     -0.53019516	     -2.26686770	      5.11751474	     -1.95913279	      0.89982097	     -0.19437487	     18.66276253	     -6.33359558	     -8.36087259	     33.74839691	     10.79067615	      0.58902064	      9.54200930	    -11.05187968	     -9.20292511	     -5.16365045	     -6.72043684	     -2.90848425	      3.29370394	     18.57030151	      0.05748598	     11.24430791	      6.06689307	     -9.20292511	    -14.23784069	      3.07044720	     -3.47264017	     -4.45575327	    -13.99639659	     -7.21023079	     17.83376107	     90.00000001	      0.00000000	      0.00000000	      1.47717552	    -13.89827569	      2.73590929	     26.73955782	     90.00000001	      0.00000000	      0.00000000
